<svg width="435" height="458" viewBox="0 0 435 458" fill="none" xmlns="http://www.w3.org/2000/svg">
<path d="M378.457 392.179C377.917 392.02 377.618 391.94 377.618 391.94L371.085 413.244L346.494 406.819C346.295 406.64 346.195 406.541 346.195 406.541C346.195 406.541 246.612 328.823 241.378 291.525C236.164 254.228 277.875 218.84 277.875 218.84C277.875 218.84 366.83 386.271 377.837 391.741C378.057 391.861 378.277 392 378.457 392.179Z" fill="#E57281"/>
<path d="M298.931 258.008C295.814 274.618 284.867 308.255 273.541 340.799C256.76 322.796 243.216 304.635 241.378 291.506C238.062 267.874 253.624 244.979 265.45 231.412C269.785 227.951 274.459 224.768 279.513 221.924C282.61 227.712 289.781 241.12 298.931 258.008Z" fill="#9A3B82"/>
<path d="M434.351 406.522L397.774 429.895L387.166 428.304L377.398 434.47L380.554 440.915L364.473 451.199C343.158 431.884 346.174 406.761 346.174 406.761L371.065 413.265L377.597 391.961C377.597 391.961 399.951 398.466 416.452 397.909C432.992 397.352 434.351 406.522 434.351 406.522Z" fill="white"/>
<path fill-rule="evenodd" clip-rule="evenodd" d="M377.197 391.223L377.765 391.388L377.597 391.961C377.765 391.388 377.765 391.388 377.765 391.388L377.781 391.392L377.828 391.406C377.87 391.418 377.933 391.436 378.016 391.46C378.183 391.507 378.429 391.576 378.749 391.664C379.39 391.84 380.324 392.091 381.497 392.39C383.843 392.99 387.143 393.783 390.957 394.559C398.595 396.113 408.253 397.588 416.431 397.312C424.816 397.03 429.46 399.213 432.011 401.569C433.281 402.742 434.012 403.939 434.426 404.852C434.633 405.308 434.761 405.694 434.838 405.97C434.876 406.108 434.902 406.218 434.918 406.298C434.926 406.337 434.932 406.369 434.936 406.392C434.938 406.403 434.94 406.413 434.941 406.42L434.943 406.429L434.943 406.432L434.943 406.434C434.943 406.434 434.944 406.435 434.351 406.522L434.944 406.435L435 406.816L397.907 430.518L387.298 428.927L378.171 434.688L381.326 441.13L364.41 451.949L364.069 451.641C353.3 441.882 348.675 430.651 346.745 421.864C345.78 417.472 345.488 413.688 345.437 410.999C345.411 409.654 345.446 408.583 345.488 407.844C345.509 407.475 345.531 407.189 345.549 406.994C345.557 406.897 345.565 406.822 345.57 406.771C345.573 406.745 345.575 406.726 345.577 406.712L345.578 406.696L345.579 406.692L345.579 406.69C345.579 406.69 345.579 406.69 346.174 406.76L345.579 406.69L345.661 406.009L370.66 412.542L377.197 391.223ZM346.71 407.517C346.701 407.634 346.693 407.766 346.685 407.911C346.645 408.622 346.61 409.664 346.635 410.977C346.685 413.602 346.971 417.306 347.916 421.609C349.786 430.12 354.234 440.965 364.538 450.449L379.782 440.7L376.624 434.252L387.034 427.68L397.64 429.271L433.671 406.247C433.607 406.026 433.502 405.714 433.334 405.343C432.976 404.554 432.334 403.494 431.196 402.444C428.933 400.354 424.627 398.23 416.472 398.505C408.15 398.786 398.381 397.287 390.717 395.728C386.88 394.948 383.56 394.15 381.199 393.547C380.018 393.245 379.077 392.992 378.431 392.815C378.268 392.77 378.124 392.73 377.999 392.695L371.47 413.988L346.71 407.517Z" fill="#FE5244"/>
<path fill-rule="evenodd" clip-rule="evenodd" d="M393.299 394.023C393.249 393.58 393.174 392.955 393.073 392.211C392.867 390.7 392.552 388.69 392.114 386.707C391.678 384.735 391.112 382.748 390.392 381.305C390.033 380.587 389.613 379.954 389.111 379.532C388.59 379.094 387.949 378.862 387.233 379.05L387.231 379.051L387.23 379.051C386.515 379.243 386.052 379.78 385.778 380.427C385.507 381.064 385.392 381.859 385.381 382.714C385.358 384.43 385.754 386.557 386.401 388.569C387.047 390.58 387.964 392.537 389.026 393.894C389.555 394.571 390.149 395.134 390.796 395.463C391.461 395.802 392.195 395.895 392.927 395.596C394.164 395.091 395.328 393.934 396.359 392.589C397.404 391.226 398.37 389.593 399.191 388.033C400.013 386.469 400.697 384.964 401.175 383.851C401.415 383.294 401.603 382.834 401.731 382.513C401.796 382.352 401.845 382.226 401.879 382.14C401.895 382.097 401.908 382.064 401.917 382.041L401.927 382.015L401.93 382.006L401.93 382.006C401.93 382.006 401.93 382.006 401.369 381.795C400.808 381.585 400.808 381.585 400.808 381.585L400.808 381.586L400.808 381.587L400.806 381.593L400.797 381.616C400.789 381.637 400.777 381.668 400.761 381.71C400.729 381.792 400.681 381.915 400.618 382.071C400.493 382.384 400.308 382.835 400.073 383.382C399.603 384.476 398.933 385.951 398.129 387.479C397.324 389.009 396.394 390.577 395.407 391.865C394.697 392.791 393.985 393.534 393.299 394.023ZM392.154 394.575C391.899 394.604 391.632 394.548 391.341 394.4C390.909 394.181 390.444 393.765 389.971 393.16C389.028 391.954 388.164 390.141 387.542 388.205C386.921 386.272 386.559 384.277 386.579 382.729C386.589 381.952 386.695 381.329 386.881 380.892C387.063 380.464 387.292 380.271 387.54 380.204C387.788 380.139 388.037 380.191 388.338 380.444C388.658 380.713 388.99 381.179 389.318 381.836C389.971 383.144 390.512 385.015 390.943 386.964C391.372 388.903 391.682 390.878 391.885 392.371C391.987 393.117 392.061 393.741 392.11 394.178C392.128 394.335 392.143 394.469 392.154 394.575Z" fill="#FE5244"/>
<path fill-rule="evenodd" clip-rule="evenodd" d="M433.149 403.844L398.339 425.486L386.786 423.635L374.662 430.851L349.98 430.471L349.999 429.277L374.339 429.653L386.546 422.388L398.086 424.237L432.515 402.832L433.149 403.844Z" fill="#FE5244"/>
<path fill-rule="evenodd" clip-rule="evenodd" d="M384.842 404.328L387.12 393.766L388.292 394.016L386.014 404.579L384.842 404.328Z" fill="#FE5244"/>
<path fill-rule="evenodd" clip-rule="evenodd" d="M389.797 405.522L392.074 394.959L393.246 395.21L390.969 405.772L389.797 405.522Z" fill="#FE5244"/>
<path fill-rule="evenodd" clip-rule="evenodd" d="M394.971 406.377L397.248 395.814L398.42 396.065L396.143 406.628L394.971 406.377Z" fill="#FE5244"/>
<path d="M269.425 210.705C269.425 210.705 284.068 217.508 284.068 242.453C284.068 266.562 228.174 414.2 228.174 414.2L210.974 428.722L193.515 409.685C202.045 401.609 177.553 255.601 269.425 210.705Z" fill="#E57281"/>
<path d="M267.868 457.007L224.399 457.047L216.328 450.005L204.762 449.945L203.923 457.067L186.883 457.087C177.614 428.363 193.595 409.664 193.595 409.664L210.935 428.681L228.255 414.18C228.255 414.18 243.277 431.724 257.46 440.119C271.683 448.533 267.868 457.007 267.868 457.007Z" fill="white"/>
<path fill-rule="evenodd" clip-rule="evenodd" d="M193.58 408.76L210.99 427.854L228.324 413.341L228.71 413.792L228.254 414.179C228.71 413.792 228.71 413.792 228.71 413.792L228.72 413.804L228.752 413.841C228.781 413.874 228.823 413.923 228.879 413.987C228.992 414.117 229.159 414.308 229.377 414.555C229.813 415.049 230.453 415.764 231.265 416.649C232.89 418.419 235.204 420.867 237.959 423.576C243.478 429.002 250.738 435.446 257.766 439.605C264.977 443.871 267.704 448.208 268.578 451.568C269.012 453.24 268.98 454.644 268.835 455.637C268.762 456.133 268.661 456.527 268.577 456.801C268.534 456.938 268.496 457.046 268.467 457.121C268.46 457.141 268.453 457.158 268.447 457.173C268.441 457.188 268.436 457.2 268.432 457.21C268.427 457.221 268.423 457.23 268.42 457.237L268.417 457.245L268.415 457.25C268.415 457.25 268.414 457.251 267.868 457.006L268.414 457.251L268.256 457.603L224.174 457.643L216.101 450.6L205.295 450.544L204.456 457.662L186.446 457.683L186.312 457.269C181.632 442.766 183.324 430.777 186.196 422.41C187.631 418.23 189.359 414.955 190.732 412.722C191.418 411.606 192.015 410.749 192.443 410.17C192.657 409.88 192.829 409.659 192.948 409.509C193.008 409.435 193.054 409.378 193.087 409.339C193.103 409.319 193.115 409.305 193.124 409.294L193.134 409.282L193.137 409.279L193.138 409.277C193.138 409.277 193.139 409.277 193.595 409.663L193.139 409.277L193.58 408.76ZM193.627 410.586C193.561 410.673 193.488 410.77 193.409 410.877C192.999 411.432 192.421 412.26 191.754 413.345C190.419 415.516 188.732 418.712 187.33 422.796C184.556 430.88 182.897 442.454 187.321 456.489L203.39 456.47L204.229 449.345L216.555 449.409L224.624 456.449L267.443 456.41C267.509 456.189 267.589 455.869 267.648 455.465C267.774 454.606 267.807 453.365 267.417 451.867C266.642 448.886 264.166 444.78 257.154 440.631C249.998 436.396 242.656 429.87 237.117 424.425C234.344 421.699 232.016 419.236 230.381 417.454C229.563 416.563 228.918 415.842 228.477 415.343C228.368 415.22 228.271 415.11 228.188 415.014L210.879 429.507L193.627 410.586Z" fill="#FE5244"/>
<path fill-rule="evenodd" clip-rule="evenodd" d="M248.27 408.056C249.16 407.934 250.018 408.153 250.762 408.796C251.5 409.434 251.84 410.23 251.837 411.104C251.835 411.949 251.515 412.825 251.031 413.679C250.065 415.385 248.326 417.202 246.486 418.844C244.635 420.495 242.636 422.01 241.103 423.11C240.395 423.618 239.785 424.039 239.332 424.345C239.531 424.364 239.773 424.373 240.061 424.368C240.781 424.357 241.688 424.265 242.725 424.111C244.797 423.802 247.325 423.255 249.785 422.658C252.242 422.062 254.617 421.421 256.38 420.928C257.261 420.682 257.988 420.473 258.494 420.326C258.747 420.252 258.946 420.194 259.08 420.154C259.147 420.134 259.199 420.119 259.233 420.108L259.285 420.093C259.285 420.093 259.285 420.093 259.458 420.664C259.63 421.236 259.63 421.236 259.63 421.236L259.577 421.252C259.557 421.258 259.532 421.265 259.502 421.274C259.478 421.281 259.451 421.289 259.421 421.298C259.285 421.338 259.085 421.397 258.83 421.471C258.32 421.62 257.589 421.83 256.704 422.077C254.933 422.572 252.543 423.218 250.068 423.818C247.596 424.417 245.027 424.975 242.902 425.291C241.841 425.449 240.875 425.549 240.08 425.562C239.32 425.573 238.598 425.51 238.114 425.246C237.455 424.885 237.333 424.103 237.356 423.447C237.381 422.736 237.584 421.859 237.9 420.913C238.537 419.01 239.685 416.683 241.065 414.543C242.44 412.411 244.08 410.412 245.722 409.209C246.544 408.607 247.407 408.174 248.27 408.056ZM238.557 423.427C239.009 423.122 239.65 422.682 240.402 422.142C241.917 421.055 243.879 419.568 245.686 417.955C247.504 416.332 249.121 414.622 249.987 413.092C250.421 412.328 250.637 411.659 250.639 411.101C250.64 410.573 250.451 410.108 249.976 409.697C249.505 409.29 248.997 409.161 248.433 409.238C247.844 409.319 247.168 409.631 246.433 410.17C244.961 411.248 243.415 413.108 242.073 415.188C240.736 417.261 239.637 419.499 239.038 421.29C238.748 422.156 238.586 422.886 238.557 423.427Z" fill="#FE5244"/>
<path fill-rule="evenodd" clip-rule="evenodd" d="M184.265 432.189L184.905 431.18L205.154 443.898H219.362L228.332 451.397H268.207V452.591H227.895L218.926 445.092H204.808L184.265 432.189Z" fill="#FE5244"/>
<path fill-rule="evenodd" clip-rule="evenodd" d="M226.272 427.484L233.943 419.846L234.791 420.69L227.12 428.328L226.272 427.484Z" fill="#FE5244"/>
<path fill-rule="evenodd" clip-rule="evenodd" d="M229.787 431.164L237.458 423.525L238.306 424.369L230.635 432.008L229.787 431.164Z" fill="#FE5244"/>
<path fill-rule="evenodd" clip-rule="evenodd" d="M233.664 434.666L241.335 427.027L242.182 427.871L234.511 435.51L233.664 434.666Z" fill="#FE5244"/>
<path d="M269.425 210.705C234.885 227.574 216.787 258.764 207.218 291.526H102.401C75.5726 291.526 55.5761 266.88 61.2294 240.762L68.9204 205.195H251.166C257.918 205.195 264.191 207.224 269.425 210.705Z" fill="#FE5244"/>
<path d="M191.595 244.798L229.331 244.719L223.738 253.849L191.595 244.798Z" fill="#E57281"/>
<path fill-rule="evenodd" clip-rule="evenodd" d="M108.675 204.61C109 204.678 109.207 204.994 109.14 205.316L107.682 212.278C107.682 212.278 107.682 212.278 107.682 212.278C104.243 228.717 116.825 244.143 133.684 244.143H229.004C239.061 230.274 252.185 218.362 269.36 209.97C269.657 209.825 270.016 209.947 270.162 210.243C270.308 210.539 270.185 210.896 269.888 211.041C252.806 219.388 239.775 231.255 229.798 245.088L229.619 245.337H133.684C116.063 245.337 102.915 229.214 106.508 212.035L107.966 205.073C108.034 204.75 108.351 204.543 108.675 204.61Z" fill="white"/>
<path fill-rule="evenodd" clip-rule="evenodd" d="M191.021 244.616C191.112 244.299 191.444 244.116 191.762 244.207L224.252 253.491L223.855 254.156C216.875 265.859 211.739 278.641 207.934 291.673C207.842 291.99 207.509 292.172 207.191 292.08C206.873 291.988 206.691 291.657 206.783 291.34C210.537 278.48 215.588 265.839 222.43 254.212L191.432 245.354C191.114 245.263 190.93 244.933 191.021 244.616Z" fill="white"/>
<path d="M44.4293 109.653L63.6267 184.646H27.8088C6.95327 184.646 -6.47096 162.586 3.19769 144.186L30.7054 91.8103C38.4962 76.9908 53.8981 67.7012 70.6984 67.7012H77.1908C55.1367 67.6813 38.9757 88.369 44.4293 109.653Z" fill="#3FB1B5"/>
<path d="M265.49 90.1982C276.777 90.1982 286.166 88.7063 288.443 86.6176L253.424 162.207C247.092 175.893 233.328 184.645 218.205 184.645C213.771 184.645 209.416 183.89 205.301 182.437C201.185 180.985 197.31 178.857 193.854 176.072L171.78 158.328C171.78 158.328 169.583 171.198 153.901 174.481V205.154H68.901L44.4297 109.633C38.9761 88.3482 55.1371 67.6406 77.1912 67.6406H136.701C141.955 67.6406 147.129 68.2971 152.123 69.5701C165.787 73.0314 178.053 81.028 186.722 92.4858L215.808 130.917L241.938 85.444C241.938 85.4838 241.918 85.5434 241.918 85.5832C241.938 88.2289 252.505 90.1982 265.49 90.1982Z" fill="#3FB1B5"/>
<path fill-rule="evenodd" clip-rule="evenodd" d="M44.0853 109.072C44.4065 108.993 44.7315 109.188 44.811 109.508L63.609 185.098C63.6885 185.418 63.4926 185.741 63.1713 185.821C62.85 185.9 62.5251 185.705 62.4455 185.385L43.6476 109.795C43.568 109.475 43.764 109.152 44.0853 109.072Z" fill="white"/>
<path fill-rule="evenodd" clip-rule="evenodd" d="M154.868 141.205C155.109 140.979 155.489 140.991 155.715 141.231L172.416 158.935C172.642 159.175 172.63 159.553 172.389 159.779C172.148 160.004 171.769 159.992 171.542 159.752L154.842 142.048C154.615 141.808 154.627 141.43 154.868 141.205Z" fill="white"/>
<path d="M288.963 85.5042L288.443 86.6182C286.166 88.7267 276.777 90.1987 265.49 90.1987C252.506 90.1987 241.938 88.2294 241.938 85.6236C241.938 85.5838 241.938 85.5241 241.958 85.4843C242.318 82.9381 252.745 80.75 265.51 80.75C278.255 80.75 288.603 82.9381 288.963 85.5042C288.963 85.4843 288.963 85.4843 288.963 85.5042Z" fill="#FE5244"/>
<path d="M299.429 47.3108C299.429 48.4447 299.149 49.5586 298.63 50.5333C298.11 51.5081 297.351 52.3634 296.412 53.0198L295.953 53.3381L292.377 72.335C291.798 75.4182 289.96 78.1434 287.303 79.8343L282.409 82.9374L278.533 85.404L276.736 89.6808C273.399 90.019 269.584 90.2179 265.509 90.2179C261.394 90.2179 257.518 90.019 254.142 89.6609V60.2009C254.142 58.9278 254.422 57.6746 254.961 56.5208L261.473 42.5566C261.473 42.5566 268.585 44.3071 265.309 53C262.332 60.8971 269.124 58.8681 272.94 57.4557C276.356 56.1827 291.278 48.6237 297.112 45.8587C298.19 45.3415 299.429 46.1372 299.429 47.3108Z" fill="#E57281"/>
<path fill-rule="evenodd" clip-rule="evenodd" d="M293.289 64.6238C293.56 64.6743 293.738 64.9341 293.688 65.2041C293.083 68.4229 291.164 71.2466 288.392 73.0111L279.622 78.5811C279.389 78.7288 279.08 78.6608 278.932 78.4292C278.784 78.1977 278.852 77.8902 279.084 77.7425L287.854 72.173C290.395 70.5559 292.152 67.9689 292.706 65.0212C292.757 64.7512 293.017 64.5733 293.289 64.6238Z" fill="#9A3B82"/>
<path fill-rule="evenodd" clip-rule="evenodd" d="M294.727 56.5691C294.998 56.6196 295.177 56.8794 295.126 57.1494C294.521 60.3682 292.603 63.1919 289.83 64.9564L281.06 70.5264C280.827 70.6741 280.519 70.6061 280.37 70.3745C280.222 70.143 280.29 69.8355 280.523 69.6878L289.292 64.1183C289.292 64.1183 289.292 64.1182 289.292 64.1181C289.292 64.1181 289.292 64.1181 289.292 64.1181C291.833 62.501 293.59 59.914 294.144 56.9665C294.195 56.6965 294.456 56.5186 294.727 56.5691Z" fill="#9A3B82"/>
<path fill-rule="evenodd" clip-rule="evenodd" d="M295.735 53.2895C295.883 53.5214 295.814 53.8287 295.581 53.9759L281.478 62.8875C281.245 63.0347 280.936 62.966 280.788 62.7341C280.64 62.5022 280.709 62.1949 280.942 62.0477L295.046 53.1361C295.279 52.9889 295.587 53.0576 295.735 53.2895Z" fill="#9A3B82"/>
<path d="M283.169 82.4409L282.39 82.9382L278.514 85.4048L276.716 89.6816C273.38 90.0197 269.565 90.2187 265.49 90.2187C261.374 90.2187 257.499 90.0198 254.123 89.6617V81.3866C257.499 80.9888 261.374 80.77 265.49 80.77C272.541 80.7501 278.854 81.4065 283.169 82.4409Z" fill="#9A3B82"/>
<path d="M150.266 69.1132C147.37 72.9922 136.583 82.1226 100.265 82.1226C53.5401 82.1226 83.445 67.7208 83.445 67.7208L103.262 34.7598L124.517 47.7492V58.1925C124.517 63.4639 128.812 67.7208 134.085 67.7208H135.464C140.418 67.7009 145.532 67.9197 150.266 69.1132Z" fill="#E57281"/>
<path d="M124.498 47.7297V50.3952L83.4258 67.7013L103.243 34.7402L124.498 47.7297Z" fill="#9A3B82"/>
<path d="M125.614 49.0218H130.129C134.284 49.0218 137.66 45.6601 137.66 41.5226V16.4785H110.711V34.1824C110.711 42.3779 117.384 49.0218 125.614 49.0218Z" fill="#E57281"/>
<path fill-rule="evenodd" clip-rule="evenodd" d="M133.457 37.832L133.457 37.8316L133.456 37.831L133.456 37.8302C133.456 37.83 133.456 37.83 133.456 37.8303C133.456 37.8303 133.456 37.8303 133.456 37.8304M133.456 37.8304C133.456 37.8305 133.456 37.8306 133.456 37.8307C133.457 37.832 133.459 37.835 133.462 37.8397C133.468 37.8491 133.478 37.8651 133.493 37.8868C133.523 37.9302 133.57 37.9961 133.637 38.0771C133.771 38.2393 133.979 38.46 134.27 38.6818C134.847 39.122 135.756 39.5739 137.08 39.5739C137.356 39.5739 137.58 39.7965 137.58 40.0712C137.58 40.3458 137.356 40.5685 137.08 40.5685C135.508 40.5685 134.389 40.0258 133.663 39.4713C133.302 39.1958 133.039 38.9192 132.865 38.7085C132.778 38.603 132.713 38.5134 132.668 38.4481C132.646 38.4154 132.628 38.3886 132.616 38.3689C132.61 38.359 132.605 38.3509 132.601 38.3446L132.596 38.3366L132.594 38.3336L132.594 38.3325L132.593 38.3319C132.593 38.3317 132.593 38.3315 133.025 38.0819" fill="#73325A"/>
<path d="M134.462 32.0534C134.992 32.0534 135.421 31.2251 135.421 30.2034C135.421 29.1818 134.992 28.3535 134.462 28.3535C133.933 28.3535 133.503 29.1818 133.503 30.2034C133.503 31.2251 133.933 32.0534 134.462 32.0534Z" fill="#73325A"/>
<path d="M115.847 19.0858C115.847 19.0858 138.081 32.4533 145.312 20.8164C151.665 10.6118 123.518 5.36035 113.689 5.32056C103.002 5.28078 88.8385 9.99519 89.0782 25.6502C89.278 38.5402 89.8173 57.3979 82.1463 54.1157C54.8584 42.459 30.6069 54.6329 30.527 77.8269C30.4471 101.021 57.4753 103.189 58.1545 97.2018C58.8537 91.2342 41.3743 92.6067 43.7315 108.103C46.0688 123.598 56.4965 142.973 80.3085 142.973C109.075 142.993 127.393 105.278 109.594 101.439C95.9501 98.4948 123.498 124.712 131.668 97.4604C140.458 68.1197 108.695 58.5118 107.916 40.788C107.137 23.0642 115.847 19.0858 115.847 19.0858Z" fill="#FFCF2D"/>
<path fill-rule="evenodd" clip-rule="evenodd" d="M97.0142 9.18187C101.968 5.98199 108.287 4.8024 113.691 4.82252C118.659 4.84263 128.208 6.17417 135.733 8.78636C139.486 10.0893 142.807 11.7341 144.79 13.7468C145.787 14.7595 146.471 15.8912 146.673 17.1427C146.877 18.4022 146.582 19.72 145.737 21.0774C143.832 24.142 140.935 25.5507 137.719 25.9481C134.521 26.3433 130.988 25.7438 127.727 24.7914C124.459 23.8372 121.427 22.5173 119.214 21.4386C118.107 20.8987 117.203 20.418 116.574 20.0719C116.26 19.8987 116.015 19.7592 115.848 19.6626C115.843 19.6601 115.839 19.6577 115.835 19.6553C115.804 19.6732 115.77 19.6932 115.734 19.7155C115.515 19.848 115.196 20.0599 114.813 20.3698C114.046 20.9893 113.018 22.0019 112.009 23.5594C109.993 26.6695 108.029 31.9895 108.415 40.7655C108.603 45.046 110.662 48.8704 113.589 52.6919C115.051 54.601 116.719 56.4961 118.464 58.4399C118.761 58.7707 119.06 59.1031 119.36 59.437C120.822 61.0608 122.319 62.7237 123.764 64.4486C127.249 68.6091 130.466 73.1717 132.249 78.5633C134.036 83.9667 134.372 90.1725 132.147 97.6018C130.076 104.508 126.743 108.13 123.041 109.625C121.085 110.415 119.059 110.596 117.115 110.38C117.198 114.427 115.644 119.243 112.842 123.908C106.829 133.918 94.9148 143.48 80.3081 143.47C68.2476 143.47 59.5528 138.556 53.5888 131.673C47.6369 124.804 44.4164 115.992 43.2375 108.176C42.6652 104.413 43.2303 101.422 44.4518 99.139C44.2586 99.0685 44.0653 98.9952 43.8722 98.9191C36.8857 96.1653 29.9867 89.6627 30.0275 77.8245C30.0681 66.0332 36.2645 57.0188 45.9193 52.4523C55.5588 47.8931 68.5964 47.7856 82.3431 53.6579L82.3434 53.658C83.2226 54.0342 83.9273 54.0706 84.5039 53.8887C85.0845 53.7057 85.6093 53.2782 86.0801 52.5857C87.0356 51.1803 87.6706 48.8283 88.0687 45.8805C88.8145 40.36 88.6972 33.0504 88.5973 26.8243C88.591 26.4307 88.5847 26.0414 88.5788 25.657C88.4561 17.6485 92.0317 12.4 97.0142 9.18187ZM45.41 99.4659C44.2522 101.55 43.6677 104.363 44.2252 108.027L44.2253 108.028C45.3836 115.708 48.5456 124.331 54.345 131.023C60.1321 137.702 68.5571 142.475 80.3084 142.475H80.3088C94.4682 142.485 106.097 133.199 111.985 123.397C114.771 118.758 116.237 114.059 116.111 110.233C114.751 109.985 113.445 109.555 112.246 109.018C110.653 108.304 109.234 107.395 108.107 106.452C106.987 105.515 106.127 104.52 105.689 103.624C105.47 103.177 105.338 102.717 105.366 102.281C105.395 101.823 105.602 101.418 106 101.135C106.377 100.867 106.885 100.737 107.482 100.711C108.085 100.685 108.822 100.763 109.7 100.952C112.02 101.453 113.786 102.515 115.013 104.011C116.21 105.472 116.867 107.313 117.058 109.372C118.915 109.602 120.833 109.443 122.666 108.703C126 107.357 129.175 104.037 131.189 97.3174C133.359 90.0763 133.021 84.0784 131.3 78.8744C129.575 73.6586 126.451 69.2101 122.997 65.0856C121.564 63.3755 120.081 61.7282 118.62 60.1046C118.318 59.7697 118.018 59.4358 117.719 59.1026C115.974 57.158 114.283 55.2377 112.795 53.2951C109.822 49.4134 107.618 45.3905 107.417 40.809C107.024 31.8613 109.025 26.3302 111.169 23.0201C112.24 21.3676 113.341 20.2778 114.183 19.5975C114.604 19.2575 114.96 19.0201 115.214 18.8658C115.342 18.7887 115.444 18.7324 115.516 18.6944C115.552 18.6754 115.58 18.661 115.601 18.6509C115.611 18.6458 115.62 18.6418 115.626 18.6389L115.634 18.6352L115.638 18.6335C115.638 18.6333 115.638 18.6331 115.847 19.0851L115.638 18.6331L115.879 18.5234L116.105 18.6594L116.098 18.6705C116.105 18.6594 116.105 18.6594 116.105 18.6594L116.105 18.6597L116.108 18.6613L116.119 18.6679C116.129 18.674 116.145 18.6831 116.165 18.6952C116.206 18.7194 116.268 18.7554 116.349 18.8022C116.511 18.8957 116.75 19.032 117.058 19.2016C117.674 19.541 118.563 20.0138 119.653 20.5453C121.836 21.6093 124.813 22.904 128.008 23.837C131.209 24.7719 134.591 25.3323 137.596 24.9611C140.582 24.592 143.176 23.3078 144.887 20.554L144.888 20.5537C145.631 19.3601 145.846 18.2816 145.687 17.3006C145.527 16.3115 144.978 15.3584 144.076 14.4432C142.261 12.5999 139.122 11.0161 135.404 9.72554C127.987 7.15092 118.548 5.83682 113.687 5.81711M116.037 109.206C115.831 107.409 115.237 105.858 114.239 104.64C113.173 103.34 111.617 102.383 109.488 101.924C108.661 101.746 108.014 101.683 107.525 101.704C107.031 101.726 106.74 101.831 106.58 101.944C106.441 102.043 106.374 102.167 106.363 102.345C106.35 102.545 106.41 102.827 106.587 103.189C106.94 103.911 107.686 104.8 108.749 105.69C109.806 106.574 111.147 107.435 112.656 108.111C113.72 108.588 114.86 108.97 116.037 109.206ZM45.41 99.4659C48.3735 100.408 51.275 100.7 53.5923 100.456C54.9487 100.313 56.1357 99.9841 57.0213 99.4681C57.9095 98.9505 58.542 98.2122 58.6506 97.2577C58.7528 96.3836 58.5205 95.6188 58.028 95.0089C57.5433 94.4087 56.8316 93.9879 56.0134 93.733C54.3815 93.2246 52.2183 93.3397 50.1412 94.1387C48.2092 94.882 46.3197 96.2287 44.9708 98.2683C44.7273 98.1817 44.4836 98.0904 44.2398 97.9943C37.5624 95.3623 30.9872 89.1838 31.0263 77.8279C31.0656 66.4251 37.035 57.7555 46.3478 53.3507C55.676 48.9387 68.408 48.7875 81.9491 54.5718C82.9877 55.0162 83.9441 55.1085 84.8055 54.8369C85.6629 54.5666 86.3529 53.9586 86.9072 53.1433C88.0018 51.5333 88.6578 48.9806 89.0587 46.0131C89.8149 40.4148 89.6962 33.0345 89.5964 26.8326C89.5899 26.4304 89.5835 26.0332 89.5775 25.6419C89.4604 17.9954 92.8466 13.0591 97.5577 10.0163C102.297 6.9552 108.404 5.79747 113.687 5.81711M45.9559 98.594C47.1665 96.8688 48.8125 95.7162 50.5011 95.0665C52.4119 94.3314 54.3401 94.2538 55.7152 94.6822C56.4006 94.8957 56.9213 95.2256 57.2496 95.6321C57.5697 96.0286 57.7307 96.526 57.6584 97.1434L57.6582 97.1452C57.5967 97.6872 57.2361 98.1906 56.5168 98.6097C55.7946 99.0305 54.7592 99.3331 53.4874 99.4668C51.3829 99.688 48.7151 99.438 45.9559 98.594Z" fill="white"/>
<path fill-rule="evenodd" clip-rule="evenodd" d="M130.19 30.3244H114.289V29.1309H130.19V30.3244Z" fill="#3FB1B5"/>
<path fill-rule="evenodd" clip-rule="evenodd" d="M135.085 25.1525C133.053 25.1525 131.169 27.321 131.169 30.3244C131.169 33.3279 133.053 35.4964 135.085 35.4964C137.117 35.4964 139 33.3279 139 30.3244C139 27.321 137.117 25.1525 135.085 25.1525ZM129.971 30.3244C129.971 26.956 132.13 23.959 135.085 23.959C138.04 23.959 140.199 26.956 140.199 30.3244C140.199 33.6929 138.04 36.6899 135.085 36.6899C132.13 36.6899 129.971 33.6929 129.971 30.3244Z" fill="#3FB1B5"/>
<path fill-rule="evenodd" clip-rule="evenodd" d="M110.433 1.91813C108.229 1.91813 106.458 3.69814 106.458 5.87665V22.6257H105.259V5.87665C105.259 3.04237 107.563 0.724609 110.433 0.724609H115.427C118.274 0.724609 120.601 3.01909 120.601 5.87665H119.403C119.403 3.68163 117.615 1.91813 115.427 1.91813H110.433Z" fill="#66B0F0"/>
<path d="M110.673 41.0669H101.065C98.6075 41.0669 96.6099 39.0777 96.6099 36.6309V27.0629C96.6099 24.6162 98.6075 22.627 101.065 22.627H110.673C113.13 22.627 115.128 24.6162 115.128 27.0629V36.6309C115.108 39.0777 113.13 41.0669 110.673 41.0669Z" fill="white"/>
<path fill-rule="evenodd" clip-rule="evenodd" d="M101.064 23.2228C98.9382 23.2228 97.2088 24.9448 97.2088 27.062V36.63C97.2088 38.7472 98.9382 40.4692 101.064 40.4692H110.673C112.794 40.4692 114.51 38.7518 114.529 36.6275V27.062C114.529 24.9448 112.799 23.2228 110.673 23.2228H101.064ZM96.0103 27.062C96.0103 24.2857 98.2762 22.0293 101.064 22.0293H110.673C113.461 22.0293 115.727 24.2857 115.727 27.062V36.6324L115.727 36.6349C115.704 39.403 113.466 41.6627 110.673 41.6627H101.064C98.2762 41.6627 96.0103 39.4063 96.0103 36.63V27.062Z" fill="#66B0F0"/>
<path d="M108.176 37.9032H103.481C101.464 37.9032 99.8057 36.272 99.8057 34.243V29.5684C99.8057 27.5593 101.444 25.9082 103.481 25.9082H108.176C110.193 25.9082 111.852 27.5394 111.852 29.5684V34.243C111.852 36.272 110.213 37.9032 108.176 37.9032Z" fill="white"/>
<path fill-rule="evenodd" clip-rule="evenodd" d="M103.482 26.506C101.778 26.506 100.406 27.8878 100.406 29.5694V34.244C100.406 35.9413 101.793 37.3074 103.482 37.3074H108.177C109.883 37.3074 111.253 35.9434 111.253 34.244V29.5694C111.253 27.8721 109.865 26.506 108.177 26.506H103.482ZM99.207 29.5694C99.207 27.2328 101.111 25.3125 103.482 25.3125H108.177C110.523 25.3125 112.452 27.2087 112.452 29.5694V34.244C112.452 36.6026 110.545 38.5009 108.177 38.5009H103.482C101.136 38.5009 99.207 36.6047 99.207 34.244V29.5694Z" fill="#66B0F0"/>
<path fill-rule="evenodd" clip-rule="evenodd" d="M101.204 37.0853L109.554 26.0254L110.512 26.7426L102.162 37.8025L101.204 37.0853Z" fill="#66B0F0"/>
<path fill-rule="evenodd" clip-rule="evenodd" d="M99.5674 35.1946L106.799 25.6465L107.756 26.3651L100.524 35.9132L99.5674 35.1946Z" fill="#66B0F0"/>
<path fill-rule="evenodd" clip-rule="evenodd" d="M103.94 37.5423L111.172 27.9941L112.129 28.7128L104.897 38.261L103.94 37.5423Z" fill="#66B0F0"/>
<path fill-rule="evenodd" clip-rule="evenodd" d="M106.839 37.5422L111.374 31.5547L112.331 32.2733L107.796 38.2608L106.839 37.5422Z" fill="#66B0F0"/>
<path fill-rule="evenodd" clip-rule="evenodd" d="M99.3477 31.5942L103.862 25.6465L104.818 26.3662L100.304 32.3139L99.3477 31.5942Z" fill="#66B0F0"/>
</svg>
